<?xml version="1.0" encoding="UTF-8"?><svg id="Layer_2" xmlns="http://www.w3.org/2000/svg" viewBox="0 0 116.25 116.25"><defs><style>.cls-1{fill:#fff;}.cls-2{fill:#286ce7;}</style></defs><g id="Layer_1-2"><g><path class="cls-2" d="M5.76,0H71.39C96.15,0,116.25,20.1,116.25,44.86v26.53c0,24.76-20.1,44.86-44.86,44.86H5.76C2.58,116.25,0,113.67,0,110.5V5.76C0,2.58,2.58,0,5.76,0Z"/><path class="cls-1" d="M92.9,51.6l-6.21-13.85-6.21-13.85c-.51-1.13-2.04-1.28-2.76-.28l-8.89,12.3-8.18,11.33-10.49-23.35c-.26-.58-.83-.95-1.46-.95H24.82c-1.16,0-1.94,1.2-1.46,2.26l30.15,67.14c.26,.58,.83,.95,1.46,.95h23.88c1.16,0,1.94-1.2,1.46-2.26l-18.04-40.16,13.9,1.42,15.1,1.55c1.23,.13,2.13-1.12,1.63-2.25Z"/></g></g></svg>